<svg width="330" height="100" xmlns="http://www.w3.org/2000/svg">

 <g>
  <title>Layer 1</title>
  <path stroke-width="22" transform="rotate(168.272, 18.915, 6.99313)" id="svg_2" d="m4.915,30.99313l14,-48l14,48l-28,0z" stroke="#000" fill="#fff"/>
  <path stroke-width="22" transform="rotate(168.272, 194.915, 3.99313)" id="svg_6" d="m180.915,27.99313l14,-48l14,48l-28,0z" stroke="#000" fill="#fff"/>
  <path stroke-width="22" transform="rotate(180, 235.915, 7.99313)" id="svg_7" d="m221.915,31.99313l14,-48l14,48l-28,0z" stroke="#000" fill="#fff"/>
  <path stroke-width="22" transform="rotate(-163.005, 305.915, 10.9931)" id="svg_8" d="m291.915,34.99313l14,-48l14,48l-28,0z" stroke="#000" fill="#fff"/>
  <path stroke-width="22" transform="rotate(180, 56.915, 14.9931)" id="svg_9" d="m42.915,38.99313l14,-48l14,48l-28,0z" stroke="#000" fill="#fff"/>
  <path stroke-width="22" transform="rotate(180, 90.915, -4.00687)" id="svg_10" d="m76.915,19.99313l14,-48l14,48l-28,0z" stroke="#000" fill="#fff"/>
  <path stroke-width="22" transform="rotate(180, 121.915, 8.99313)" id="svg_11" d="m107.915,32.99313l14,-48l14,48l-28,0z" stroke="#000" fill="#fff"/>
  <path stroke-width="22" transform="rotate(180, 163.915, 20.9931)" id="svg_12" d="m149.915,44.99313l14,-48l14,48l-28,0z" stroke="#000" fill="#fff"/>
  <path stroke-width="22" transform="rotate(180, 235.915, 7.99313)" id="svg_13" d="m221.915,31.99313l14,-48l14,48l-28,0z" stroke="#000" fill="#fff"/>
  <path stroke-width="22" transform="rotate(180, 264.915, -3.00687)" id="svg_14" d="m250.915,20.99313l14,-48l14,48l-28,0z" stroke="#000" fill="#fff"/>
 </g>
</svg>