<svg width="330" height="100" xmlns="http://www.w3.org/2000/svg">

 <g>
  <title>Layer 1</title>
  <g transform="rotate(-180, 163.324, 77.5)" id="svg_15">
   <path stroke-width="22" transform="rotate(168.272, 18.915, 76)" id="svg_2" d="m4.915,99.99999l14,-48l14,48l-28,0z" stroke="#000" fill="#fff"/>
   <path stroke-width="22" transform="rotate(168.272, 194.915, 73)" id="svg_6" d="m180.915,96.99999l14,-48l14,48l-28,0z" stroke="#000" fill="#fff"/>
   <path stroke-width="22" transform="rotate(180, 235.915, 77)" id="svg_7" d="m221.915,100.99999l14,-48l14,48l-28,0z" stroke="#000" fill="#fff"/>
   <path stroke-width="22" transform="rotate(-163.005, 305.915, 80)" id="svg_8" d="m291.915,103.99999l14,-48l14,48l-28,0z" stroke="#000" fill="#fff"/>
   <path stroke-width="22" transform="rotate(180, 56.915, 84)" id="svg_9" d="m42.915,107.99999l14,-48l14,48l-28,0z" stroke="#000" fill="#fff"/>
   <path stroke-width="22" transform="rotate(180, 90.915, 65)" id="svg_10" d="m76.915,88.99999l14,-48l14,48l-28,0z" stroke="#000" fill="#fff"/>
   <path stroke-width="22" transform="rotate(180, 121.915, 78)" id="svg_11" d="m107.915,101.99999l14,-48l14,48l-28,0z" stroke="#000" fill="#fff"/>
   <path stroke-width="22" transform="rotate(180, 163.915, 90)" id="svg_12" d="m149.915,113.99999l14,-48l14,48l-28,0z" stroke="#000" fill="#fff"/>
   <path stroke-width="22" transform="rotate(180, 235.915, 77)" id="svg_13" d="m221.915,100.99999l14,-48l14,48l-28,0z" stroke="#000" fill="#fff"/>
   <path stroke-width="22" transform="rotate(180, 264.915, 66)" id="svg_14" d="m250.915,89.99999l14,-48l14,48l-28,0z" stroke="#000" fill="#fff"/>
  </g>
 </g>
</svg>